<svg width="226" height="43" viewBox="0 0 226 43" fill="none" xmlns="http://www.w3.org/2000/svg">
<path d="M67.9255 14.344C70.9255 14.344 73.2295 15.064 74.8375 16.504C76.4455 17.92 77.2495 20.068 77.2495 22.948V34H71.9935V31.588C70.9375 33.388 68.9695 34.288 66.0895 34.288C64.6015 34.288 63.3055 34.036 62.2015 33.532C61.1215 33.028 60.2935 32.332 59.7175 31.444C59.1415 30.556 58.8535 29.548 58.8535 28.42C58.8535 26.62 59.5255 25.204 60.8695 24.172C62.2375 23.14 64.3375 22.624 67.1695 22.624H71.6335C71.6335 21.4 71.2615 20.464 70.5175 19.816C69.7735 19.144 68.6575 18.808 67.1695 18.808C66.1375 18.808 65.1175 18.976 64.1095 19.312C63.1255 19.624 62.2855 20.056 61.5895 20.608L59.5735 16.684C60.6295 15.94 61.8895 15.364 63.3535 14.956C64.8415 14.548 66.3655 14.344 67.9255 14.344ZM67.4935 30.508C68.4535 30.508 69.3055 30.292 70.0495 29.86C70.7935 29.404 71.3215 28.744 71.6335 27.88V25.9H67.7815C65.4775 25.9 64.3255 26.656 64.3255 28.168C64.3255 28.888 64.6015 29.464 65.1535 29.896C65.7295 30.304 66.5095 30.508 67.4935 30.508Z" fill="#45A8AD"/>
<path d="M82.3322 7.288H87.9482V34H82.3322V7.288Z" fill="#E97235"/>
<path d="M93.1604 7.288H98.7764V34H93.1604V7.288Z" fill="#F11818"/>
<path d="M112.664 34.432C110.672 34.432 108.74 34.168 106.868 33.64C105.02 33.088 103.532 32.38 102.404 31.516L104.384 27.124C105.464 27.916 106.748 28.552 108.236 29.032C109.724 29.512 111.212 29.752 112.7 29.752C114.356 29.752 115.58 29.512 116.372 29.032C117.164 28.528 117.56 27.868 117.56 27.052C117.56 26.452 117.32 25.96 116.84 25.576C116.384 25.168 115.784 24.844 115.04 24.604C114.32 24.364 113.336 24.1 112.088 23.812C110.168 23.356 108.596 22.9 107.372 22.444C106.148 21.988 105.092 21.256 104.204 20.248C103.34 19.24 102.908 17.896 102.908 16.216C102.908 14.752 103.304 13.432 104.096 12.256C104.888 11.056 106.076 10.108 107.66 9.412C109.268 8.716 111.224 8.368 113.528 8.368C115.136 8.368 116.708 8.56 118.244 8.944C119.78 9.328 121.124 9.88 122.276 10.6L120.476 15.028C118.148 13.708 115.82 13.048 113.492 13.048C111.86 13.048 110.648 13.312 109.856 13.84C109.088 14.368 108.704 15.064 108.704 15.928C108.704 16.792 109.148 17.44 110.036 17.872C110.948 18.28 112.328 18.688 114.176 19.096C116.096 19.552 117.668 20.008 118.892 20.464C120.116 20.92 121.16 21.64 122.024 22.624C122.912 23.608 123.356 24.94 123.356 26.62C123.356 28.06 122.948 29.38 122.132 30.58C121.34 31.756 120.14 32.692 118.532 33.388C116.924 34.084 114.968 34.432 112.664 34.432Z" fill="#C432A9"/>
<path d="M151.75 14.344C154.174 14.344 156.094 15.064 157.51 16.504C158.95 17.92 159.67 20.056 159.67 22.912V34H154.054V23.776C154.054 22.24 153.73 21.1 153.082 20.356C152.458 19.588 151.558 19.204 150.382 19.204C149.062 19.204 148.018 19.636 147.25 20.5C146.482 21.34 146.098 22.6 146.098 24.28V34H140.482V23.776C140.482 20.728 139.258 19.204 136.81 19.204C135.514 19.204 134.482 19.636 133.714 20.5C132.946 21.34 132.562 22.6 132.562 24.28V34H126.946V14.632H132.31V16.864C133.03 16.048 133.906 15.424 134.938 14.992C135.994 14.56 137.146 14.344 138.394 14.344C139.762 14.344 140.998 14.62 142.102 15.172C143.206 15.7 144.094 16.48 144.766 17.512C145.558 16.504 146.554 15.724 147.754 15.172C148.978 14.62 150.31 14.344 151.75 14.344Z" fill="#F6B839"/>
<path d="M172.515 14.344C175.515 14.344 177.819 15.064 179.427 16.504C181.035 17.92 181.839 20.068 181.839 22.948V34H176.583V31.588C175.527 33.388 173.559 34.288 170.679 34.288C169.191 34.288 167.895 34.036 166.791 33.532C165.711 33.028 164.883 32.332 164.307 31.444C163.731 30.556 163.443 29.548 163.443 28.42C163.443 26.62 164.115 25.204 165.459 24.172C166.827 23.14 168.927 22.624 171.759 22.624H176.223C176.223 21.4 175.851 20.464 175.107 19.816C174.363 19.144 173.247 18.808 171.759 18.808C170.727 18.808 169.707 18.976 168.699 19.312C167.715 19.624 166.875 20.056 166.179 20.608L164.163 16.684C165.219 15.94 166.479 15.364 167.943 14.956C169.431 14.548 170.955 14.344 172.515 14.344ZM172.083 30.508C173.043 30.508 173.895 30.292 174.639 29.86C175.383 29.404 175.911 28.744 176.223 27.88V25.9H172.371C170.067 25.9 168.915 26.656 168.915 28.168C168.915 28.888 169.191 29.464 169.743 29.896C170.319 30.304 171.099 30.508 172.083 30.508Z" fill="#7CC762"/>
<path d="M192.286 17.188C192.958 16.252 193.858 15.544 194.986 15.064C196.138 14.584 197.458 14.344 198.946 14.344V19.528C198.322 19.48 197.902 19.456 197.686 19.456C196.078 19.456 194.818 19.912 193.906 20.824C192.994 21.712 192.538 23.056 192.538 24.856V34H186.922V14.632H192.286V17.188Z" fill="#FA0303"/>
<path d="M214.918 33.064C214.366 33.472 213.682 33.784 212.866 34C212.074 34.192 211.234 34.288 210.346 34.288C208.042 34.288 206.254 33.7 204.982 32.524C203.734 31.348 203.11 29.62 203.11 27.34V19.384H200.122V15.064H203.11V10.348H208.726V15.064H213.55V19.384H208.726V27.268C208.726 28.084 208.93 28.72 209.338 29.176C209.77 29.608 210.37 29.824 211.138 29.824C212.026 29.824 212.782 29.584 213.406 29.104L214.918 33.064Z" fill="#A7A5FB"/>
<path d="M46.5078 4.83594C46.8359 6.38281 47 8.32813 47 10.6719C47 14.0469 46.2031 16.9062 44.6094 19.25C43.0156 21.5938 40.8125 23.6797 38 25.5078V32.8203C38 33.4297 37.8125 34.0391 37.4375 34.6484C37.0625 35.2109 36.6172 35.6094 36.1016 35.8438L29.2109 39.2891C28.9766 39.4297 28.7188 39.5 28.4375 39.5C27.9688 39.5 27.5703 39.3359 27.2422 39.0078C26.9141 38.6797 26.75 38.2812 26.75 37.8125V30.5L25.2031 32.1172C24.7344 32.5391 24.1953 32.75 23.5859 32.75C22.9766 32.75 22.4375 32.5391 21.9688 32.1172L18.3828 28.5312C17.9609 28.0625 17.75 27.5234 17.75 26.9141C17.75 26.3047 17.9609 25.7656 18.3828 25.2969L20 23.75H12.6875C12.2188 23.75 11.8203 23.5859 11.4922 23.2578C11.1641 22.9297 11 22.5312 11 22.0625C11 21.7812 11.0703 21.5234 11.2109 21.2891L14.6562 14.3281C14.8906 13.8594 15.3125 13.4375 15.9219 13.0625C16.5312 12.6875 17.1172 12.5 17.6797 12.5H24.9922C26.7734 9.64062 28.8359 7.4375 31.1797 5.89062C33.5703 4.29687 36.4531 3.5 39.8281 3.5C42.2188 3.5 44.1641 3.66406 45.6641 3.99219C46.1328 4.08594 46.4141 4.36719 46.5078 4.83594ZM35.9609 14.5391C36.5234 15.0547 37.2031 15.3125 38 15.3125C38.7969 15.3125 39.4531 15.0547 39.9688 14.5391C40.5312 13.9766 40.8125 13.2969 40.8125 12.5C40.8125 11.7031 40.5312 11.0469 39.9688 10.5312C39.4531 9.96875 38.7969 9.6875 38 9.6875C37.2031 9.6875 36.5234 9.96875 35.9609 10.5312C35.4453 11.0469 35.1875 11.7031 35.1875 12.5C35.1875 13.2969 35.4453 13.9766 35.9609 14.5391Z" fill="url(#paint0_linear)"/>
<defs>
<linearGradient id="paint0_linear" x1="29" y1="35" x2="38.5" y2="10.5" gradientUnits="userSpaceOnUse">
<stop stop-color="#E6976A" stop-opacity="0.79"/>
<stop offset="0.229167" stop-color="#45A8AD"/>
<stop offset="0.4375" stop-color="#7C81E6"/>
<stop offset="0.588542" stop-color="#E67C83" stop-opacity="0.97"/>
<stop offset="0.755208" stop-color="#7CC762"/>
<stop offset="0.979167" stop-color="#E97235"/>
</linearGradient>
</defs>
</svg>
